<?xml version="1.0" encoding="utf-8"?>
<!-- Generator: Adobe Illustrator 19.0.0, SVG Export Plug-In . SVG Version: 6.00 Build 0)  -->
<svg fill="white" version="1.1" id="圖層_1" xmlns="http://www.w3.org/2000/svg" xmlns:xlink="http://www.w3.org/1999/xlink" x="0px" y="0px"
	viewBox="77.2 328.8 441 185.1" style="enable-background:new 77.2 328.8 441 185.1;" xml:space="preserve">
<g id="XMLID_19_">
	<path id="XMLID_6_" d="M136.2,328.8c0,0-59,75.2-59,125.9c0,32.6,26.4,59,59,59s59-26.4,59-59C195.2,404,136.2,328.8,136.2,328.8z"
		/>
	<polygon id="XMLID_4_" points="344.5,410.7 311.7,410.7 311.7,378 285.6,378 285.6,410.7 252.9,410.7 252.9,436.9 285.6,436.9 
		285.6,469.6 311.7,469.6 311.7,436.9 344.5,436.9 	"/>
	<g id="XMLID_1_">
		<path id="XMLID_3_" d="M516.4,449.5c-1.6-8.1-4.7-15.7-10.4-22.1c-5.4-6.1-11.9-9.8-19.2-11.9c0.1,0,0.2-0.1,0.3-0.1
			c10.5-4.6,16.3-12.7,18.3-23.8c1.8-10,1.9-20.1,0-30.1c-1.3-7-3.8-13.5-8.4-19c-6.7-8.1-15.8-11.4-25.9-12.1
			c-4.3-0.3-8.7,0-13.1,0v183.5h27.2c16-0.6,28.3-13.1,31.3-28.8c0-0.1,0-0.3,0.1-0.4C518.7,472.9,518.8,461.2,516.4,449.5z"/>
		<path id="XMLID_128_" d="M448.3,513.6c-0.7,0-1.4,0.1-2.1,0.1c-8.2,0-16.3,0-24.5,0c-10.5,0-17.4-6.9-17.4-17.4
			c0-50.2,0-100.5,0-150.7c0-9.1,6.1-15.3,15.1-15.4c9.2-0.1,18.3,0,27.5,0c0.4,0,0.8,0.1,1.4,0.1
			C448.3,391.4,448.3,452.4,448.3,513.6z"/>
	</g>
</g>
</svg>
