<?xml version="1.0" encoding="iso-8859-1"?>
<!-- Generator: Adobe Illustrator 19.0.0, SVG Export Plug-In . SVG Version: 6.00 Build 0)  -->
<!-- License: CC0. Made by SVG Repo: https://www.svgrepo.com/svg/233369/coffee-beans-coffee -->
<svg version="1.1" id="Layer_1" xmlns="http://www.w3.org/2000/svg" xmlns:xlink="http://www.w3.org/1999/xlink" x="0px" y="0px"
	 viewBox="0 0 253.579 253.579" style="enable-background:new 0 0 253.579 253.579;" xml:space="preserve">
<g>
	<g>
		<g>
			<path d="M92.04,110.335l33.692-95.732c0.892-2.868,0.6-5.916-0.804-8.588c-1.412-2.668-3.764-4.632-6.632-5.516
				c-5.912-1.824-12.26,1.5-14.124,7.512l-26.228,97.964c-20.08-3.356-40.872,11.404-47.988,34.408l-16.624,53.736L65.6,210.291
				c0.38,2.052,0.972,4.156,1.9,6.264c2.02,4.584,5.088,8.404,8.644,10.764c2.436,1.62,4.928,2.444,7.284,2.444
				c1.34,0,2.632-0.264,3.848-0.8c3.356-1.48,5.592-4.792,6.3-9.328c0.032-0.216,0.02-0.452,0.048-0.672l1.964,0.608l16.624-53.74
				C119.328,142.823,110.484,118.891,92.04,110.335z M86.644,222.675c-0.164,0.932-0.684,1.86-1.528,2.8
				c-1.976,0.616-4.344,0.152-6.78-1.464c-2.924-1.944-5.488-5.164-7.204-9.06c-2.804-6.356-2.544-13.012,0.236-16.22
				c-1.312,3.976-0.54,8.628,2.432,11.692c1.652,1.7,3.74,2.812,5.752,3.884c0.952,0.508,1.916,1.02,2.82,1.592
				C84.752,217.411,87.124,219.979,86.644,222.675z M89.652,219.023c-0.148,0.948-0.404,1.78-0.712,2.552
				c-0.164-2.752-2.068-5.504-5.36-7.588c-0.952-0.604-1.96-1.144-2.964-1.68c-1.948-1.036-3.784-2.016-5.196-3.464
				c-3.092-3.188-3.228-8.532-0.532-12.024c0.208-0.024,0.416-0.06,0.632-0.06c1.584,0,3.332,0.6,5.1,1.772
				c2.924,1.944,5.488,5.164,7.204,9.06C89.544,211.491,90.192,215.551,89.652,219.023z M108.424,164.655l-14.92,48.22
				c-0.364-2.288-1.048-4.62-2.044-6.888c-0.52-1.184-1.116-2.308-1.768-3.376l12.044-38.936
				c5.892-19.048-2.432-38.608-18.56-43.596l-4.12-1.276c-4.176-1.292-8.464-1.424-12.64-0.66c0.336,0.54,0.688,1.068,1.04,1.6
				c3.672-0.564,7.424-0.388,11.08,0.744l4.12,1.276c15.2,4.704,23.008,23.272,17.4,41.392l-11.64,37.624
				c-1.636-2.244-3.516-4.172-5.6-5.556c-3.816-2.536-7.768-3.124-11.132-1.644c-4.268,1.884-6.544,6.648-6.532,12.412
				l-46.856-14.496l15.452-49.948c6.736-21.756,26.564-35.524,45.204-31.34l1.86,0.416l27.176-101.52
				c1.196-3.844,5.292-6.016,9.14-4.82c1.856,0.572,3.38,1.844,4.292,3.576c0.912,1.732,1.1,3.708,0.552,5.492l-34.916,99.204
				l1.768,0.704C106.54,120.327,115.148,142.899,108.424,164.655z"/>
			<path d="M50.712,128.415c-0.356-0.472-0.716-0.932-1.08-1.4c-4.644,4.488-8.38,10.38-10.516,17.292l1.68,0.52
				C42.824,138.275,46.344,132.687,50.712,128.415z"/>
			<path d="M64.212,120.451c-0.324-0.512-0.668-1.012-0.992-1.528c-4,1.216-7.84,3.244-11.272,6.044
				c0.356,0.464,0.716,0.92,1.068,1.388C56.42,123.567,60.24,121.575,64.212,120.451z"/>
			<path d="M38.556,181.359c1.852,4.564,6.248,7.708,12.384,8.852c1.652,0.308,3.384,0.46,5.16,0.46
				c4.472,0,9.248-0.968,13.876-2.84c6.46-2.62,11.904-6.72,15.316-11.548c3.608-5.092,4.576-10.412,2.724-14.976
				c-1.852-4.564-6.248-7.708-12.384-8.852c-5.812-1.088-12.572-0.24-19.036,2.38C42.732,160.459,34.808,172.107,38.556,181.359z
				 M84.92,165.539c0.148,2.636-0.812,5.548-2.868,8.448c-2.984,4.216-7.804,7.824-13.572,10.164
				c-5.768,2.34-11.748,3.1-16.816,2.16c-2.804-0.524-5.04-1.584-6.74-2.992c0.42,0.156,0.836,0.324,1.268,0.416
				c0.58,0.12,1.16,0.18,1.752,0.18c3.852,0,7.824-2.56,10.904-7.124c0.896-1.32,1.7-2.72,2.496-4.116
				c1.58-2.76,3.072-5.364,5.248-7.36C71.624,160.719,79.928,160.927,84.92,165.539z M70.456,155.959
				c1.54,0,3.028,0.132,4.448,0.396c4.308,0.804,7.376,2.804,8.916,5.592c-5.824-3.372-13.708-2.924-18.76,1.696
				c-2.44,2.232-4.088,5.116-5.688,7.904c-0.768,1.348-1.544,2.7-2.408,3.976c-2.328,3.448-6.268,6.824-10.312,5.996
				c-1.648-0.344-3.244-1.404-4.852-3.14c-1.34-6.796,5.668-15.556,16.284-19.86C62.24,156.827,66.5,155.959,70.456,155.959z"/>
			<path d="M140.892,221.963c-2.772-2.4-6.724-3.004-11.124-1.696c-4.088,1.212-8.144,3.968-11.416,7.756
				c-3.276,3.788-5.416,8.196-6.024,12.42c-0.656,4.544,0.512,8.368,3.284,10.764c1.812,1.572,4.132,2.372,6.752,2.372
				c1.384,0,2.852-0.224,4.372-0.672c4.088-1.212,8.144-3.968,11.416-7.756C145.24,236.951,146.444,226.767,140.892,221.963z
				 M117.124,246.911c-0.904-1.492-1.212-3.528-0.872-5.904c0.504-3.48,2.312-7.168,5.096-10.392
				c2.784-3.22,6.176-5.544,9.548-6.544c1.008-0.3,1.964-0.444,2.864-0.48c-2.532,1.272-4.328,4.14-4.816,8.12
				c-0.136,1.12-0.192,2.256-0.248,3.396c-0.1,2.204-0.2,4.284-0.908,6.176C126.264,245.383,121.404,247.835,117.124,246.911z
				 M135.152,242.551c-2.784,3.22-6.176,5.544-9.548,6.544c-1.936,0.576-3.668,0.604-5.14,0.212c4.128-0.54,7.964-3.252,9.452-7.228
				c0.828-2.228,0.94-4.584,1.048-6.864c0.052-1.084,0.1-2.164,0.232-3.228c0.344-2.796,1.648-6.04,4.288-6.76
				c0.904-0.252,1.96-0.18,3.172,0.18C141.868,228.867,140.388,236.499,135.152,242.551z"/>
			<path d="M49.656,215.019c-1.372-1.188-3.132-1.668-5.028-1.36c-3.128,0.484-6.372,3.016-8.68,6.772
				c-3.696,6.008-3.824,13.1-0.288,16.144c1.104,0.952,2.448,1.444,3.928,1.444c0.36,0,0.728-0.028,1.1-0.088
				c3.124-0.484,6.368-3.016,8.68-6.772C53.064,225.151,53.188,218.063,49.656,215.019z M42.132,228.859
				c-0.36,1.508-1.296,2.784-2.572,3.504c-0.612,0.348-1.252,0.472-1.884,0.488c-1.152-2.02-0.84-6.296,1.652-10.344
				c1.12-1.82,2.54-3.244,3.94-4.1c-0.564,1.104-0.904,2.508-0.952,4.128c-0.024,0.752,0,1.508,0.02,2.264
				C42.384,226.243,42.428,227.607,42.132,228.859z M45.984,229.079c-1.032,1.676-2.316,2.996-3.608,3.876
				c0.928-0.984,1.632-2.196,1.956-3.572c0.368-1.548,0.32-3.124,0.272-4.652c-0.024-0.708-0.048-1.42-0.024-2.124
				c0.056-1.808,0.632-3.856,1.8-4.364c0.22-0.096,0.5-0.1,0.792-0.088C48.824,219.795,48.764,224.567,45.984,229.079z"/>
			<rect x="144.272" y="23.351" width="2.36" height="11.668"/>
			<rect x="154.672" y="23.351" width="2.36" height="11.668"/>
			<rect x="165.112" y="23.351" width="2.36" height="11.668"/>
			<rect x="185.952" y="23.351" width="2.36" height="11.668"/>
			<rect x="175.512" y="23.351" width="2.36" height="11.668"/>
			<rect x="196.352" y="23.351" width="2.36" height="11.668"/>
			<rect x="206.792" y="23.351" width="2.36" height="11.668"/>
			<rect x="217.192" y="23.351" width="2.36" height="11.668"/>
			<path d="M235.552,52.779l-0.024-0.588l-8.368-11.98l4.136-24.512h-99.244l4.252,25.2l-7.868,10.768l-5.032,135.04l-0.024,0.688
				l10.008,13.724h97.208l9.652-13.744L235.552,52.779z M226.604,19.667l-3.328,19.744h-83.2l-3.328-19.744H226.604z
				 M135.408,197.151l-8.008-10.984l4.944-132.684h45.62v-2.268h-44.276l5.72-7.832h85.124l7.076,10.124l4.588,131.46h-59.248v2.268
				h27.764l-6.468,9.916H135.408z M200.948,197.151L200.948,197.151l6.468-9.916h7.428l-6.468,9.916H200.948z M211.084,197.151
				L211.084,197.151l6.468-9.916h7.428l-6.468,9.916H211.084z M228.536,197.151h-7.32l6.468-9.916h7.816L228.536,197.151z"/>
			<rect x="188.872" y="51.215" width="29.704" height="2.268"/>
			<rect x="151.152" y="184.971" width="19.632" height="2.268"/>
			<path d="M182.648,154.835c21.632,0,39.236-17.6,39.236-39.236s-17.6-39.236-39.236-39.236s-39.236,17.6-39.236,39.236
				S161.016,154.835,182.648,154.835z M182.648,80.335c19.444,0,35.264,15.82,35.264,35.264c0,19.444-15.82,35.264-35.264,35.264
				c-19.444,0-35.264-15.82-35.264-35.264C147.384,96.155,163.204,80.335,182.648,80.335z"/>
			<path d="M180.144,131.319c2.436,1.62,4.928,2.444,7.284,2.444c1.34,0,2.632-0.264,3.848-0.8c3.356-1.48,5.592-4.792,6.3-9.328
				c0.656-4.216-0.096-9.06-2.116-13.644c-2.02-4.584-5.088-8.404-8.644-10.764c-3.82-2.536-7.772-3.124-11.132-1.644
				c-6.72,2.964-8.556,13.052-4.184,22.972C173.516,125.135,176.588,128.959,180.144,131.319z M178.892,100.823
				c0.208-0.024,0.416-0.06,0.632-0.06c1.584,0,3.332,0.6,5.1,1.772c2.924,1.944,5.488,5.164,7.204,9.06
				c1.72,3.9,2.368,7.956,1.828,11.432c-0.148,0.948-0.404,1.78-0.712,2.552c-0.164-2.752-2.068-5.504-5.36-7.588
				c-0.952-0.604-1.96-1.144-2.964-1.68c-1.948-1.036-3.784-2.016-5.196-3.464C176.328,109.655,176.196,104.315,178.892,100.823z
				 M175.364,102.735c-1.312,3.976-0.54,8.628,2.432,11.692c1.652,1.7,3.74,2.812,5.752,3.884c0.952,0.508,1.916,1.02,2.82,1.592
				c2.38,1.508,4.752,4.076,4.268,6.772c-0.164,0.932-0.684,1.86-1.528,2.8c-1.976,0.616-4.344,0.152-6.78-1.464
				c-2.924-1.944-5.488-5.164-7.204-9.06C172.328,112.599,172.588,105.943,175.364,102.735z"/>
		</g>
	</g>
</g>
</svg>
